<svg width="512" height="512" viewBox="0 0 200 200" xmlns="http://www.w3.org/2000/svg">
  <defs>
    <clipPath id="mainCircleClip">
      <circle cx="100" cy="100" r="100" />
    </clipPath>
  </defs>

  <circle cx="100" cy="100" r="100" fill="#B93632" />

  <g clip-path="url(#mainCircleClip)" opacity="0.2">
    <path d="M140 70 L 250 180 L 250 250 L 100 250 L 60 160 Z" fill="black" />
    <path d="M100 100 L 200 200 L 250 200 L 150 100 Z" fill="black" />
  </g>

  <g transform="translate(100, 100)">
    
    <path d="M 50 -10 A 52 52 0 1 0 50 45 L 35 30 A 30 30 0 1 1 35 -25 Z" 
          fill="#4A1815" />

    <g fill="#F2C055" stroke="none">
        <path d="M 49 -12 A 50 50 0 0 0 5 -49 L 5 -29 A 30 30 0 0 1 32 -8 Z" />
        <circle cx="40" cy="-20" r="2.5" fill="#4A1815"/>
        <circle cx="28" cy="-38" r="2.5" fill="#4A1815"/>
        <circle cx="12" cy="-43" r="2.5" fill="#4A1815"/>
        <circle cx="20" cy="-25" r="2" fill="#4A1815"/>
        <circle cx="30" cy="-14" r="2" fill="#4A1815"/>
    </g>

    <g fill="#F2C055" stroke="none">
        <path d="M -6 -49 A 50 50 0 0 0 -35 35 L -20 20 A 30 30 0 0 1 -6 -29 Z" />
        <circle cx="-12" cy="-44" r="2.5" fill="#4A1815"/>
        <circle cx="-32" cy="-32" r="2.5" fill="#4A1815"/>
        <circle cx="-43" cy="-10" r="2.5" fill="#4A1815"/>
        <circle cx="-42" cy="15" r="2.5" fill="#4A1815"/>
        <circle cx="-14" cy="-22" r="2" fill="#4A1815"/>
        <circle cx="-25" cy="-8" r="2" fill="#4A1815"/>
        <circle cx="-24" cy="12" r="2" fill="#4A1815"/>
    </g>

    <g fill="#F2C055" stroke="none">
        <path d="M -26 42 A 50 50 0 0 0 49 14 L 32 10 A 30 30 0 0 1 -13 26 Z" />
        <circle cx="-18" cy="40" r="2.5" fill="#4A1815"/>
        <circle cx="5" cy="45" r="2.5" fill="#4A1815"/>
        <circle cx="28" cy="38" r="2.5" fill="#4A1815"/>
        <circle cx="-5" cy="24" r="2" fill="#4A1815"/>
        <circle cx="15" cy="25" r="2" fill="#4A1815"/>
    </g>

    <path d="M 49 -12 A 50 50 0 0 0 5 -49" fill="none" stroke="#C88526" stroke-width="1"/>
    <path d="M -6 -49 A 50 50 0 0 0 -35 35" fill="none" stroke="#C88526" stroke-width="1"/>
    <path d="M -26 42 A 50 50 0 0 0 49 14" fill="none" stroke="#C88526" stroke-width="1"/>
    
    <path d="M 5 -29 A 30 30 0 0 1 32 -8" fill="none" stroke="#C88526" stroke-width="1"/>
    <path d="M -6 -29 A 30 30 0 0 1 -20 20" fill="none" stroke="#C88526" stroke-width="1"/>
    <path d="M -13 26 A 30 30 0 0 1 32 10" fill="none" stroke="#C88526" stroke-width="1"/>

  </g>
</svg>